<svg xmlns="http://www.w3.org/2000/svg" viewBox="0 0 512 512" fill="none">
  <defs>
    <linearGradient id="grad1" x1="0%" y1="0%" x2="100%" y2="100%">
      <stop offset="0%" style="stop-color:#8B5CF6;stop-opacity:1" />
      <stop offset="100%" style="stop-color:#D946EF;stop-opacity:1" />
    </linearGradient>
    <linearGradient id="grad2" x1="0%" y1="0%" x2="100%" y2="100%">
      <stop offset="0%" style="stop-color:#06B6D4;stop-opacity:1" />
      <stop offset="100%" style="stop-color:#8B5CF6;stop-opacity:1" />
    </linearGradient>
  </defs>
  
  <!-- Main Shield Shape -->
  <path d="M256 48L64 112V240C64 368 144 448 256 480C368 448 448 368 448 240V112L256 48Z" fill="url(#grad1)" opacity="0.9"/>
  
  <!-- Inner Shield Highlight -->
  <path d="M256 80L96 136V240C96 352 168 424 256 452C344 424 416 352 416 240V136L256 80Z" fill="url(#grad2)" opacity="0.3"/>
  
  <!-- Lock Body -->
  <rect x="176" y="224" width="160" height="128" rx="16" fill="white" opacity="0.95"/>
  
  <!-- Lock Shackle -->
  <path d="M208 224V176C208 149.49 229.49 128 256 128C282.51 128 304 149.49 304 176V224" stroke="white" stroke-width="24" stroke-linecap="round" fill="none" opacity="0.95"/>
  
  <!-- Keyhole Circle -->
  <circle cx="256" cy="280" r="24" fill="url(#grad1)"/>
  
  <!-- Keyhole Extension -->
  <path d="M256 296L248 336H264L256 296Z" fill="url(#grad1)"/>
  
  <!-- AI Sparkle 1 -->
  <path d="M384 64L392 80L408 88L392 96L384 112L376 96L360 88L376 80L384 64Z" fill="#FFD700" opacity="0.9"/>
  
  <!-- AI Sparkle 2 -->
  <path d="M128 160L134 172L146 178L134 184L128 196L122 184L110 178L122 172L128 160Z" fill="#FFD700" opacity="0.9"/>
  
  <!-- Blockchain nodes -->
  <circle cx="432" cy="192" r="12" fill="white" opacity="0.7"/>
  <circle cx="80" cy="256" r="12" fill="white" opacity="0.7"/>
  <circle cx="432" cy="320" r="12" fill="white" opacity="0.7"/>
  
  <!-- Connection lines -->
  <path d="M416 192L336 240M432 320L336 300M80 256L160 272" stroke="white" stroke-width="2" opacity="0.4" stroke-dasharray="4 4"/>
</svg>
